<?xml version="1.0" encoding="UTF-8" standalone="no"?>
<!-- Created with Inkscape (http://www.inkscape.org/) -->

<svg
   xmlns:dc="http://purl.org/dc/elements/1.1/"
   xmlns:cc="http://creativecommons.org/ns#"
   xmlns:rdf="http://www.w3.org/1999/02/22-rdf-syntax-ns#"
   xmlns:svg="http://www.w3.org/2000/svg"
   xmlns="http://www.w3.org/2000/svg"
   xmlns:sodipodi="http://sodipodi.sourceforge.net/DTD/sodipodi-0.dtd"
   xmlns:inkscape="http://www.inkscape.org/namespaces/inkscape"
   width="210mm"
   height="297mm"
   viewBox="0 0 210 297"
   version="1.1"
   id="svg884"
   inkscape:version="0.92.5 (2060ec1f9f, 2020-04-08)"
   sodipodi:docname="siec.svg">
  <defs
     id="defs878" />
  <sodipodi:namedview
     id="base"
     pagecolor="#ffffff"
     bordercolor="#666666"
     borderopacity="1.0"
     inkscape:pageopacity="0.0"
     inkscape:pageshadow="2"
     inkscape:zoom="0.64889381"
     inkscape:cx="281.6911"
     inkscape:cy="1021.0083"
     inkscape:document-units="mm"
     inkscape:current-layer="layer1"
     showgrid="false"
     inkscape:window-width="1848"
     inkscape:window-height="1016"
     inkscape:window-x="72"
     inkscape:window-y="27"
     inkscape:window-maximized="1" />
  <metadata
     id="metadata881">
    <rdf:RDF>
      <cc:Work
         rdf:about="">
        <dc:format>image/svg+xml</dc:format>
        <dc:type
           rdf:resource="http://purl.org/dc/dcmitype/StillImage" />
        <dc:title></dc:title>
      </cc:Work>
    </rdf:RDF>
  </metadata>
  <g
     inkscape:label="Layer 1"
     inkscape:groupmode="layer"
     id="layer1"
     style="display:inline">
    <rect
       style="fill:#ffd42a;stroke:#000000;stroke-width:0.83201879;stroke-miterlimit:4;stroke-dasharray:none"
       id="rect886"
       width="101.11573"
       height="89.965881"
       x="3.5612898"
       y="49.747475"
       ry="19.831205"
       inkscape:export-xdpi="96"
       inkscape:export-ydpi="96" />
    <g
       transform="matrix(0.26458333,0,0,0.26458333,13.19109,56.243038)"
       inkscape:label="dlink"
       id="layer3"
       inkscape:export-xdpi="96"
       inkscape:export-ydpi="96">
      <path
         d="m 89.702,-6.4583 h -0.07482 c -0.57431,-0.16773 -0.8426,0.40334 -1.2159,0.72098 -0.53769,13.64 -1.157,26.19 -0.72098,40.375 1.3448,0.02081 2.1515,0.0039 3.4536,-0.08248 0.56211,-14.155 -0.5242,-26.501 -0.72099,-40.292 l -0.72098,-0.72098"
         inkscape:connector-curvature="0"
         style="fill:#000000"
         sodipodi:nodetypes="ccccccc"
         id="path7414-5-5" />
      <path
         d="m 55.102,-6.4583 h -0.07482 c -0.57431,-0.16773 -0.8426,0.40334 -1.2159,0.72098 -0.53769,13.64 -1.157,26.19 -0.72098,40.375 1.3448,0.02081 2.1515,0.0039 3.4536,-0.08248 0.56211,-14.155 -0.5242,-26.501 -0.72099,-40.292 l -0.72098,-0.72098"
         inkscape:connector-curvature="0"
         style="fill:#000000"
         sodipodi:nodetypes="ccccccc"
         id="path7414-5-5-5" />
      <path
         d="m 35.896,40.807 76.009,1.2004 m -70.79,-15.224 h 62.323 l 8.6436,15.215 -1.4602,9.3973 -74.311,-0.40015 c -1.362,-9.486 0.906,-15.855 4.816,-24.211 z"
         inkscape:connector-curvature="0"
         sodipodi:nodetypes="cccccccc"
         style="fill:#333333"
         id="path4102" />
      <path
         inkscape:connector-curvature="0"
         style="fill:#aaccee"
         sodipodi:nodetypes="cccc"
         d="m 67.675,49.153 h 36.051 l -0.0749,-1.6886 c -6.3832,1.0426 -24.922,1.4257 -35.976,1.6886 z"
         id="path4129" />
      <path
         d="m 35.897,38.209 5.3172,-11.426 h 62.223 l 7.6932,13.014 c 0.18438,1.5339 -1.1135,2.3006 -3.626,2.2101 h -69.81 C 34.6019,41.39476 35.846,39.2203 36.0971,37.5898 m -0.40015,2.1007 v 8.003 c 0.02517,2.2276 0.45924,3.8009 1.8136,3.9018 h 70.809 c 3.0949,0.02134 2.5936,-0.95406 2.9046,-2.6013 v -8.6031"
         inkscape:connector-curvature="0"
         style="fill:none;stroke:#000000;stroke-width:2"
         sodipodi:nodetypes="ccccccccccccc"
         id="path3111" />
      <path
         d="m 43.888,29.887 c 19.052,-0.78624 38.105,-0.81424 57.157,0"
         inkscape:connector-curvature="0"
         style="fill:#666666;stroke:#666666;stroke-width:0.96309px"
         sodipodi:nodetypes="cc"
         id="path4662" />
      <path
         d="m 40.831,37.991 c 21.674,-1.1109 43.158,-1.2868 64.3,0"
         inkscape:connector-curvature="0"
         style="fill:#666666;stroke:#666666;stroke-width:1.02149999px"
         sodipodi:nodetypes="cc"
         id="path4662-9" />
    </g>
    <path
       id="path1553"
       d="m 115.3254,21.265388 c 0.40459,-2.20865 -0.0293,-4.456364 -1.24908,-6.398134 -1.34248,-2.137097 -3.47563,-3.646678 -6.00693,-4.250345 -0.77691,-0.185459 -1.57404,-0.279628 -2.36989,-0.279628 -3.61939,0 -6.909516,1.904349 -8.600633,4.914462 -0.808757,-0.528003 -1.764719,-0.812154 -2.763722,-0.812154 -1.329996,0 -2.575198,0.499217 -3.506626,1.405952 -0.778197,0.757463 -1.26371,1.753021 -1.379924,2.800391 -3.901319,0.223291 -7.076521,3.322639 -7.170783,7.100494 -0.04864,1.945881 0.699,3.793892 2.104749,5.201902 1.40618,1.408831 3.301746,2.209884 5.339351,2.256351 l 24.338908,0.002 c 3.48123,0 6.31297,-2.705399 6.31297,-6.031327 0,-2.918001 -2.12456,-5.348296 -5.04839,-5.910019 z"
       inkscape:connector-curvature="0"
       style="fill:#ffffff;stroke:#000000;stroke-width:0.42070884"
       inkscape:export-xdpi="96"
       inkscape:export-ydpi="96"
       sodipodi:nodetypes="cscscsccccccscc" />
    <rect
       style="fill:#aad400;stroke:#000000;stroke-width:0.79374999;stroke-miterlimit:4;stroke-dasharray:none"
       id="rect886-3"
       width="70.296883"
       height="81.980766"
       x="104.63039"
       y="49.662579"
       ry="18.071045"
       inkscape:export-xdpi="96"
       inkscape:export-ydpi="96" />
    <g
       transform="matrix(0.26458333,0,0,0.26458333,65.759735,67.659909)"
       inkscape:label="dlink"
       id="layer3-6"
       inkscape:export-xdpi="96"
       inkscape:export-ydpi="96">
      <path
         d="m 89.702,-6.4583 h -0.07482 c -0.57431,-0.16773 -0.8426,0.40334 -1.2159,0.72098 -0.53769,13.64 -1.157,26.19 -0.72098,40.375 1.3448,0.02081 2.1515,0.0039 3.4536,-0.08248 0.56211,-14.155 -0.5242,-26.501 -0.72099,-40.292 l -0.72098,-0.72098"
         inkscape:connector-curvature="0"
         style="fill:#000000"
         sodipodi:nodetypes="ccccccc"
         id="path7414-5-5-7" />
      <path
         d="m 55.102,-6.4583 h -0.07482 c -0.57431,-0.16773 -0.8426,0.40334 -1.2159,0.72098 -0.53769,13.64 -1.157,26.19 -0.72098,40.375 1.3448,0.02081 2.1515,0.0039 3.4536,-0.08248 0.56211,-14.155 -0.5242,-26.501 -0.72099,-40.292 l -0.72098,-0.72098"
         inkscape:connector-curvature="0"
         style="fill:#000000"
         sodipodi:nodetypes="ccccccc"
         id="path7414-5-5-5-5" />
      <path
         d="m 35.896,40.807 76.009,1.2004 m -70.79,-15.224 h 62.323 l 8.6436,15.215 -1.4602,9.3973 -74.311,-0.40015 c -1.362,-9.486 0.906,-15.855 4.816,-24.211 z"
         inkscape:connector-curvature="0"
         sodipodi:nodetypes="cccccccc"
         style="fill:#333333"
         id="path4102-3" />
      <path
         inkscape:connector-curvature="0"
         style="fill:#aaccee"
         sodipodi:nodetypes="cccc"
         d="m 67.675,49.153 h 36.051 l -0.0749,-1.6886 c -6.3832,1.0426 -24.922,1.4257 -35.976,1.6886 z"
         id="path4129-5" />
      <path
         d="m 35.897,38.209 5.3172,-11.426 h 62.223 l 7.6932,13.014 c 0.18438,1.5339 -1.1135,2.3006 -3.626,2.2101 h -69.81 C 34.6019,41.39476 35.846,39.2203 36.0971,37.5898 m -0.40015,2.1007 v 8.003 c 0.02517,2.2276 0.45924,3.8009 1.8136,3.9018 h 70.809 c 3.0949,0.02134 2.5936,-0.95406 2.9046,-2.6013 v -8.6031"
         inkscape:connector-curvature="0"
         style="fill:none;stroke:#000000;stroke-width:2"
         sodipodi:nodetypes="ccccccccccccc"
         id="path3111-6" />
      <path
         d="m 43.888,29.887 c 19.052,-0.78624 38.105,-0.81424 57.157,0"
         inkscape:connector-curvature="0"
         style="fill:#666666;stroke:#666666;stroke-width:0.96309px"
         sodipodi:nodetypes="cc"
         id="path4662-2" />
      <path
         d="m 40.831,37.991 c 21.674,-1.1109 43.158,-1.2868 64.3,0"
         inkscape:connector-curvature="0"
         style="fill:#666666;stroke:#666666;stroke-width:1.02149999px"
         sodipodi:nodetypes="cc"
         id="path4662-9-9" />
    </g>
    <g
       transform="matrix(0.26458333,0,0,0.26458333,119.20484,60.524367)"
       inkscape:label="dlink"
       id="layer3-1"
       inkscape:export-xdpi="96"
       inkscape:export-ydpi="96">
      <path
         d="m 89.702,-6.4583 h -0.07482 c -0.57431,-0.16773 -0.8426,0.40334 -1.2159,0.72098 -0.53769,13.64 -1.157,26.19 -0.72098,40.375 1.3448,0.02081 2.1515,0.0039 3.4536,-0.08248 0.56211,-14.155 -0.5242,-26.501 -0.72099,-40.292 l -0.72098,-0.72098"
         inkscape:connector-curvature="0"
         style="fill:#000000"
         sodipodi:nodetypes="ccccccc"
         id="path7414-5-5-2" />
      <path
         d="m 55.102,-6.4583 h -0.07482 c -0.57431,-0.16773 -0.8426,0.40334 -1.2159,0.72098 -0.53769,13.64 -1.157,26.19 -0.72098,40.375 1.3448,0.02081 2.1515,0.0039 3.4536,-0.08248 0.56211,-14.155 -0.5242,-26.501 -0.72099,-40.292 l -0.72098,-0.72098"
         inkscape:connector-curvature="0"
         style="fill:#000000"
         sodipodi:nodetypes="ccccccc"
         id="path7414-5-5-5-7" />
      <path
         d="m 35.896,40.807 76.009,1.2004 m -70.79,-15.224 h 62.323 l 8.6436,15.215 -1.4602,9.3973 -74.311,-0.40015 c -1.362,-9.486 0.906,-15.855 4.816,-24.211 z"
         inkscape:connector-curvature="0"
         sodipodi:nodetypes="cccccccc"
         style="fill:#333333"
         id="path4102-0" />
      <path
         inkscape:connector-curvature="0"
         style="fill:#aaccee"
         sodipodi:nodetypes="cccc"
         d="m 67.675,49.153 h 36.051 l -0.0749,-1.6886 c -6.3832,1.0426 -24.922,1.4257 -35.976,1.6886 z"
         id="path4129-9" />
      <path
         d="m 35.897,38.209 5.3172,-11.426 h 62.223 l 7.6932,13.014 c 0.18438,1.5339 -1.1135,2.3006 -3.626,2.2101 h -69.81 C 34.6019,41.39476 35.846,39.2203 36.0971,37.5898 m -0.40015,2.1007 v 8.003 c 0.02517,2.2276 0.45924,3.8009 1.8136,3.9018 h 70.809 c 3.0949,0.02134 2.5936,-0.95406 2.9046,-2.6013 v -8.6031"
         inkscape:connector-curvature="0"
         style="fill:none;stroke:#000000;stroke-width:2"
         sodipodi:nodetypes="ccccccccccccc"
         id="path3111-3" />
      <path
         d="m 43.888,29.887 c 19.052,-0.78624 38.105,-0.81424 57.157,0"
         inkscape:connector-curvature="0"
         style="fill:#666666;stroke:#666666;stroke-width:0.96309px"
         sodipodi:nodetypes="cc"
         id="path4662-6" />
      <path
         d="m 40.831,37.991 c 21.674,-1.1109 43.158,-1.2868 64.3,0"
         inkscape:connector-curvature="0"
         style="fill:#666666;stroke:#666666;stroke-width:1.02149999px"
         sodipodi:nodetypes="cc"
         id="path4662-9-0" />
    </g>
    <g
       transform="matrix(0.26458333,0,0,0.26458333,120.63195,99.056289)"
       inkscape:label="dlink"
       id="layer3-62"
       inkscape:export-xdpi="96"
       inkscape:export-ydpi="96">
      <path
         d="m 89.702,-6.4583 h -0.07482 c -0.57431,-0.16773 -0.8426,0.40334 -1.2159,0.72098 -0.53769,13.64 -1.157,26.19 -0.72098,40.375 1.3448,0.02081 2.1515,0.0039 3.4536,-0.08248 0.56211,-14.155 -0.5242,-26.501 -0.72099,-40.292 l -0.72098,-0.72098"
         inkscape:connector-curvature="0"
         style="fill:#000000"
         sodipodi:nodetypes="ccccccc"
         id="path7414-5-5-6" />
      <path
         d="m 55.102,-6.4583 h -0.07482 c -0.57431,-0.16773 -0.8426,0.40334 -1.2159,0.72098 -0.53769,13.64 -1.157,26.19 -0.72098,40.375 1.3448,0.02081 2.1515,0.0039 3.4536,-0.08248 0.56211,-14.155 -0.5242,-26.501 -0.72099,-40.292 l -0.72098,-0.72098"
         inkscape:connector-curvature="0"
         style="fill:#000000"
         sodipodi:nodetypes="ccccccc"
         id="path7414-5-5-5-1" />
      <path
         d="m 35.896,40.807 76.009,1.2004 m -70.79,-15.224 h 62.323 l 8.6436,15.215 -1.4602,9.3973 -74.311,-0.40015 c -1.362,-9.486 0.906,-15.855 4.816,-24.211 z"
         inkscape:connector-curvature="0"
         sodipodi:nodetypes="cccccccc"
         style="fill:#333333"
         id="path4102-8" />
      <path
         inkscape:connector-curvature="0"
         style="fill:#aaccee"
         sodipodi:nodetypes="cccc"
         d="m 67.675,49.153 h 36.051 l -0.0749,-1.6886 c -6.3832,1.0426 -24.922,1.4257 -35.976,1.6886 z"
         id="path4129-7" />
      <path
         d="m 35.897,38.209 5.3172,-11.426 h 62.223 l 7.6932,13.014 c 0.18438,1.5339 -1.1135,2.3006 -3.626,2.2101 h -69.81 C 34.6019,41.39476 35.846,39.2203 36.0971,37.5898 m -0.40015,2.1007 v 8.003 c 0.02517,2.2276 0.45924,3.8009 1.8136,3.9018 h 70.809 c 3.0949,0.02134 2.5936,-0.95406 2.9046,-2.6013 v -8.6031"
         inkscape:connector-curvature="0"
         style="fill:none;stroke:#000000;stroke-width:2"
         sodipodi:nodetypes="ccccccccccccc"
         id="path3111-9" />
      <path
         d="m 43.888,29.887 c 19.052,-0.78624 38.105,-0.81424 57.157,0"
         inkscape:connector-curvature="0"
         style="fill:#666666;stroke:#666666;stroke-width:0.96309px"
         sodipodi:nodetypes="cc"
         id="path4662-20" />
      <path
         d="m 40.831,37.991 c 21.674,-1.1109 43.158,-1.2868 64.3,0"
         inkscape:connector-curvature="0"
         style="fill:#666666;stroke:#666666;stroke-width:1.02149999px"
         sodipodi:nodetypes="cc"
         id="path4662-9-2" />
    </g>
    <g
       transform="matrix(0.26458333,0,0,0.26458333,65.759735,101.42662)"
       inkscape:label="dlink"
       id="layer3-3"
       inkscape:export-xdpi="96"
       inkscape:export-ydpi="96">
      <path
         d="m 89.702,-6.4583 h -0.07482 c -0.57431,-0.16773 -0.8426,0.40334 -1.2159,0.72098 -0.53769,13.64 -1.157,26.19 -0.72098,40.375 1.3448,0.02081 2.1515,0.0039 3.4536,-0.08248 0.56211,-14.155 -0.5242,-26.501 -0.72099,-40.292 l -0.72098,-0.72098"
         inkscape:connector-curvature="0"
         style="fill:#000000"
         sodipodi:nodetypes="ccccccc"
         id="path7414-5-5-75" />
      <path
         d="m 55.102,-6.4583 h -0.07482 c -0.57431,-0.16773 -0.8426,0.40334 -1.2159,0.72098 -0.53769,13.64 -1.157,26.19 -0.72098,40.375 1.3448,0.02081 2.1515,0.0039 3.4536,-0.08248 0.56211,-14.155 -0.5242,-26.501 -0.72099,-40.292 l -0.72098,-0.72098"
         inkscape:connector-curvature="0"
         style="fill:#000000"
         sodipodi:nodetypes="ccccccc"
         id="path7414-5-5-5-9" />
      <path
         d="m 35.896,40.807 76.009,1.2004 m -70.79,-15.224 h 62.323 l 8.6436,15.215 -1.4602,9.3973 -74.311,-0.40015 c -1.362,-9.486 0.906,-15.855 4.816,-24.211 z"
         inkscape:connector-curvature="0"
         sodipodi:nodetypes="cccccccc"
         style="fill:#333333"
         id="path4102-2" />
      <path
         inkscape:connector-curvature="0"
         style="fill:#aaccee"
         sodipodi:nodetypes="cccc"
         d="m 67.675,49.153 h 36.051 l -0.0749,-1.6886 c -6.3832,1.0426 -24.922,1.4257 -35.976,1.6886 z"
         id="path4129-2" />
      <path
         d="m 35.897,38.209 5.3172,-11.426 h 62.223 l 7.6932,13.014 c 0.18438,1.5339 -1.1135,2.3006 -3.626,2.2101 h -69.81 C 34.6019,41.39476 35.846,39.2203 36.0971,37.5898 m -0.40015,2.1007 v 8.003 c 0.02517,2.2276 0.45924,3.8009 1.8136,3.9018 h 70.809 c 3.0949,0.02134 2.5936,-0.95406 2.9046,-2.6013 v -8.6031"
         inkscape:connector-curvature="0"
         style="fill:none;stroke:#000000;stroke-width:2"
         sodipodi:nodetypes="ccccccccccccc"
         id="path3111-8" />
      <path
         d="m 43.888,29.887 c 19.052,-0.78624 38.105,-0.81424 57.157,0"
         inkscape:connector-curvature="0"
         style="fill:#666666;stroke:#666666;stroke-width:0.96309px"
         sodipodi:nodetypes="cc"
         id="path4662-97" />
      <path
         d="m 40.831,37.991 c 21.674,-1.1109 43.158,-1.2868 64.3,0"
         inkscape:connector-curvature="0"
         style="fill:#666666;stroke:#666666;stroke-width:1.02149999px"
         sodipodi:nodetypes="cc"
         id="path4662-9-3" />
    </g>
    <text
       xml:space="preserve"
       style="font-style:normal;font-weight:normal;font-size:5.23229837px;line-height:1.25;font-family:sans-serif;letter-spacing:0px;word-spacing:0px;fill:#000000;fill-opacity:1;stroke:none;stroke-width:0.13080746"
       x="30.298229"
       y="137.22679"
       id="text1677"
       inkscape:export-xdpi="96"
       inkscape:export-ydpi="96"><tspan
         sodipodi:role="line"
         id="tspan1675"
         x="30.298229"
         y="137.22679"
         style="stroke-width:0.13080746">TINC NETWORK A</tspan></text>
    <text
       xml:space="preserve"
       style="font-style:normal;font-weight:normal;font-size:5.23229885px;line-height:1.25;font-family:sans-serif;letter-spacing:0px;word-spacing:0px;fill:#000000;fill-opacity:1;stroke:none;stroke-width:0.13080746"
       x="115.97778"
       y="129.61639"
       id="text1677-6"
       inkscape:export-xdpi="96"
       inkscape:export-ydpi="96"><tspan
         sodipodi:role="line"
         id="tspan1675-1"
         x="115.97778"
         y="129.61639"
         style="stroke-width:0.13080746">TINC NETWORK B</tspan></text>
    <text
       xml:space="preserve"
       style="font-style:normal;font-weight:normal;font-size:4.04468822px;line-height:1.25;font-family:sans-serif;letter-spacing:0px;word-spacing:0px;fill:#000000;fill-opacity:1;stroke:none;stroke-width:0.1011172"
       x="32.354214"
       y="74.177864"
       id="text1699"
       inkscape:export-xdpi="96"
       inkscape:export-ydpi="96"><tspan
         sodipodi:role="line"
         id="tspan1697"
         x="32.354214"
         y="74.177864"
         style="font-style:normal;font-variant:normal;font-weight:normal;font-stretch:normal;font-size:4.04471684px;font-family:sans-serif;-inkscape-font-specification:'sans-serif, Normal';font-variant-ligatures:normal;font-variant-caps:normal;font-variant-numeric:normal;font-feature-settings:normal;text-align:center;writing-mode:lr-tb;text-anchor:middle;stroke-width:0.1011172">A-master</tspan><tspan
         sodipodi:role="line"
         x="32.354214"
         y="79.233757"
         style="font-style:normal;font-variant:normal;font-weight:normal;font-stretch:normal;font-size:4.04471684px;font-family:sans-serif;-inkscape-font-specification:'sans-serif, Normal';font-variant-ligatures:normal;font-variant-caps:normal;font-variant-numeric:normal;font-feature-settings:normal;text-align:center;writing-mode:lr-tb;text-anchor:middle;stroke-width:0.1011172"
         id="tspan1701">10.10.1.1</tspan></text>
    <text
       xml:space="preserve"
       style="font-style:normal;font-weight:normal;font-size:4.04468822px;line-height:1.25;font-family:sans-serif;letter-spacing:0px;word-spacing:0px;fill:#000000;fill-opacity:1;stroke:none;stroke-width:0.10111721"
       x="85.15271"
       y="85.466888"
       id="text1699-3"
       inkscape:export-xdpi="96"
       inkscape:export-ydpi="96"><tspan
         sodipodi:role="line"
         id="tspan1697-1"
         x="85.15271"
         y="85.466888"
         style="font-style:normal;font-variant:normal;font-weight:normal;font-stretch:normal;font-size:4.04471684px;font-family:sans-serif;-inkscape-font-specification:'sans-serif, Normal';font-variant-ligatures:normal;font-variant-caps:normal;font-variant-numeric:normal;font-feature-settings:normal;text-align:center;writing-mode:lr-tb;text-anchor:middle;stroke-width:0.10111721">A-1</tspan><tspan
         sodipodi:role="line"
         x="85.15271"
         y="90.522781"
         style="font-style:normal;font-variant:normal;font-weight:normal;font-stretch:normal;font-size:4.04471684px;font-family:sans-serif;-inkscape-font-specification:'sans-serif, Normal';font-variant-ligatures:normal;font-variant-caps:normal;font-variant-numeric:normal;font-feature-settings:normal;text-align:center;writing-mode:lr-tb;text-anchor:middle;stroke-width:0.10111721"
         id="tspan1701-8">10.10.1.2</tspan></text>
    <text
       xml:space="preserve"
       style="font-style:normal;font-weight:normal;font-size:4.04468822px;line-height:1.25;font-family:sans-serif;letter-spacing:0px;word-spacing:0px;fill:#000000;fill-opacity:1;stroke:none;stroke-width:0.10111721"
       x="85.15271"
       y="118.87837"
       id="text1699-3-9"
       inkscape:export-xdpi="96"
       inkscape:export-ydpi="96"><tspan
         sodipodi:role="line"
         id="tspan1697-1-6"
         x="85.15271"
         y="118.87837"
         style="font-style:normal;font-variant:normal;font-weight:normal;font-stretch:normal;font-size:4.04471684px;font-family:sans-serif;-inkscape-font-specification:'sans-serif, Normal';font-variant-ligatures:normal;font-variant-caps:normal;font-variant-numeric:normal;font-feature-settings:normal;text-align:center;writing-mode:lr-tb;text-anchor:middle;stroke-width:0.10111721">A-2</tspan><tspan
         sodipodi:role="line"
         x="85.15271"
         y="123.93427"
         style="font-style:normal;font-variant:normal;font-weight:normal;font-stretch:normal;font-size:4.04471684px;font-family:sans-serif;-inkscape-font-specification:'sans-serif, Normal';font-variant-ligatures:normal;font-variant-caps:normal;font-variant-numeric:normal;font-feature-settings:normal;text-align:center;writing-mode:lr-tb;text-anchor:middle;stroke-width:0.10111721"
         id="tspan1701-8-4">10.10.1.3</tspan></text>
    <text
       xml:space="preserve"
       style="font-style:normal;font-weight:normal;font-size:4.04468822px;line-height:1.25;font-family:sans-serif;letter-spacing:0px;word-spacing:0px;fill:#000000;fill-opacity:1;stroke:none;stroke-width:0.10111721"
       x="139.20944"
       y="78.793404"
       id="text1699-33"
       inkscape:export-xdpi="96"
       inkscape:export-ydpi="96"><tspan
         sodipodi:role="line"
         id="tspan1697-8"
         x="139.20944"
         y="78.793404"
         style="font-style:normal;font-variant:normal;font-weight:normal;font-stretch:normal;font-size:4.04471684px;font-family:sans-serif;-inkscape-font-specification:'sans-serif, Normal';font-variant-ligatures:normal;font-variant-caps:normal;font-variant-numeric:normal;font-feature-settings:normal;text-align:center;writing-mode:lr-tb;text-anchor:middle;stroke-width:0.10111721">B-master</tspan><tspan
         sodipodi:role="line"
         x="139.20944"
         y="83.849297"
         style="font-style:normal;font-variant:normal;font-weight:normal;font-stretch:normal;font-size:4.04471684px;font-family:sans-serif;-inkscape-font-specification:'sans-serif, Normal';font-variant-ligatures:normal;font-variant-caps:normal;font-variant-numeric:normal;font-feature-settings:normal;text-align:center;writing-mode:lr-tb;text-anchor:middle;stroke-width:0.10111721"
         id="tspan1701-6">10.10.1.1</tspan></text>
    <text
       xml:space="preserve"
       style="font-style:normal;font-weight:normal;font-size:4.04468822px;line-height:1.25;font-family:sans-serif;letter-spacing:0px;word-spacing:0px;fill:#000000;fill-opacity:1;stroke:none;stroke-width:0.10111721"
       x="140.43268"
       y="116.71371"
       id="text1699-33-0"
       inkscape:export-xdpi="96"
       inkscape:export-ydpi="96"><tspan
         sodipodi:role="line"
         id="tspan1697-8-4"
         x="140.43268"
         y="116.71371"
         style="font-style:normal;font-variant:normal;font-weight:normal;font-stretch:normal;font-size:4.04471684px;font-family:sans-serif;-inkscape-font-specification:'sans-serif, Normal';font-variant-ligatures:normal;font-variant-caps:normal;font-variant-numeric:normal;font-feature-settings:normal;text-align:center;writing-mode:lr-tb;text-anchor:middle;stroke-width:0.10111721">B-1</tspan><tspan
         sodipodi:role="line"
         x="140.43268"
         y="121.7696"
         style="font-style:normal;font-variant:normal;font-weight:normal;font-stretch:normal;font-size:4.04471684px;font-family:sans-serif;-inkscape-font-specification:'sans-serif, Normal';font-variant-ligatures:normal;font-variant-caps:normal;font-variant-numeric:normal;font-feature-settings:normal;text-align:center;writing-mode:lr-tb;text-anchor:middle;stroke-width:0.10111721"
         id="tspan1701-6-8">10.10.1.2</tspan></text>
    <text
       xml:space="preserve"
       style="font-style:normal;font-weight:normal;font-size:4.04468822px;line-height:1.25;font-family:sans-serif;letter-spacing:0px;word-spacing:0px;fill:#000000;fill-opacity:1;stroke:none;stroke-width:0.10111721"
       x="101.28913"
       y="30.282337"
       id="text1699-8"
       inkscape:export-xdpi="96"
       inkscape:export-ydpi="96"><tspan
         sodipodi:role="line"
         x="101.28913"
         y="30.282337"
         style="font-style:normal;font-variant:normal;font-weight:normal;font-stretch:normal;font-size:4.04471684px;font-family:sans-serif;-inkscape-font-specification:'sans-serif, Normal';font-variant-ligatures:normal;font-variant-caps:normal;font-variant-numeric:normal;font-feature-settings:normal;text-align:center;writing-mode:lr-tb;text-anchor:middle;stroke-width:0.10111721"
         id="tspan1701-7">INERNET</tspan></text>
    <path
       style="fill:#0000ff;stroke:#0000ff;stroke-width:1.05833328;stroke-linecap:butt;stroke-linejoin:miter;stroke-miterlimit:4;stroke-dasharray:none;stroke-opacity:1"
       d="M 40.559061,63.329478 C 84.811001,30.33464 84.811001,30.33464 84.811001,30.33464 v 0"
       id="path5576"
       inkscape:connector-curvature="0"
       inkscape:export-xdpi="96"
       inkscape:export-ydpi="96" />
    <path
       style="fill:#0000ff;stroke:#0000ff;stroke-width:1.05833328;stroke-linecap:butt;stroke-linejoin:miter;stroke-miterlimit:4;stroke-dasharray:none;stroke-opacity:1"
       d="M 130.08318,67.610807 114.06081,31.973504"
       id="path5578"
       inkscape:connector-curvature="0"
       inkscape:export-xdpi="96"
       inkscape:export-ydpi="96" />
    <path
       style="fill:#ff0000;stroke:#ff0000;stroke-width:1.05833328;stroke-linecap:butt;stroke-linejoin:miter;stroke-miterlimit:4;stroke-dasharray:none;stroke-opacity:1"
       d="M 42.846013,67.355113 C 75.310425,77.605542 75.310425,77.605542 75.310425,77.605542"
       id="path5580"
       inkscape:connector-curvature="0"
       inkscape:export-xdpi="96"
       inkscape:export-ydpi="96" />
    <path
       style="fill:#ff0000;stroke:#ff0000;stroke-width:1.05833328;stroke-linecap:butt;stroke-linejoin:miter;stroke-miterlimit:4;stroke-dasharray:2.11666667, 1.05833333;stroke-dashoffset:0;stroke-opacity:1"
       d="M 42.594342,66.77266 128.75553,70.47"
       id="path5582"
       inkscape:connector-curvature="0"
       inkscape:export-xdpi="96"
       inkscape:export-ydpi="96" />
    <path
       style="fill:#ff0000;stroke:#ff0000;stroke-width:1.05833328;stroke-linecap:butt;stroke-linejoin:miter;stroke-miterlimit:4;stroke-dasharray:2.11666669, 1.05833334;stroke-dashoffset:0;stroke-opacity:1"
       d="M 130.18264,109.00192 129.12951,74.175623"
       id="path5582-7"
       inkscape:connector-curvature="0"
       sodipodi:nodetypes="cc"
       inkscape:export-xdpi="96"
       inkscape:export-ydpi="96" />
    <path
       style="fill:#ff0000;stroke:#ff0000;stroke-width:1.05833328;stroke-linecap:butt;stroke-linejoin:miter;stroke-miterlimit:4;stroke-dasharray:2.11666669, 1.05833334;stroke-dashoffset:0;stroke-opacity:1"
       d="m 95.131455,110.95209 35.029505,-0.0948"
       id="path5582-6"
       inkscape:connector-curvature="0"
       sodipodi:nodetypes="cc"
       inkscape:export-xdpi="96"
       inkscape:export-ydpi="96" />
    <path
       style="fill:#ff0000;stroke:#ff0000;stroke-width:1.05833328;stroke-linecap:butt;stroke-linejoin:miter;stroke-miterlimit:4;stroke-dasharray:2.11666669, 1.05833334;stroke-dashoffset:0;stroke-opacity:1"
       d="M 95.367933,78.774367 130.18264,109.00192"
       id="path5582-4"
       inkscape:connector-curvature="0"
       sodipodi:nodetypes="cc"
       inkscape:export-xdpi="96"
       inkscape:export-ydpi="96" />
    <text
       xml:space="preserve"
       style="font-style:normal;font-weight:normal;font-size:10.58333302px;line-height:1.25;font-family:sans-serif;letter-spacing:0px;word-spacing:0px;fill:#000000;fill-opacity:1;stroke:none;stroke-width:0.26458332"
       x="87.651619"
       y="60.619934"
       id="text5613"
       transform="rotate(3.19468)"
       inkscape:export-xdpi="96"
       inkscape:export-ydpi="96"><tspan
         sodipodi:role="line"
         id="tspan5611"
         x="87.651619"
         y="60.619934"
         style="font-style:normal;font-variant:normal;font-weight:normal;font-stretch:normal;font-size:3.52777767px;font-family:sans-serif;-inkscape-font-specification:'sans-serif, Normal';font-variant-ligatures:normal;font-variant-caps:normal;font-variant-numeric:normal;font-feature-settings:normal;text-align:start;writing-mode:lr-tb;text-anchor:start;stroke-width:0.26458332">wireless</tspan></text>
    <text
       xml:space="preserve"
       style="font-style:normal;font-weight:normal;font-size:10.58333302px;line-height:1.25;font-family:sans-serif;letter-spacing:0px;word-spacing:0px;fill:#000000;fill-opacity:1;stroke:none;stroke-width:0.26458332"
       x="-86.774529"
       y="130.29097"
       id="text5613-3"
       transform="rotate(-88.27292)"
       inkscape:export-xdpi="96"
       inkscape:export-ydpi="96"><tspan
         sodipodi:role="line"
         id="tspan5611-0"
         x="-86.774529"
         y="130.29097"
         style="font-style:normal;font-variant:normal;font-weight:normal;font-stretch:normal;font-size:3.52777767px;font-family:sans-serif;-inkscape-font-specification:'sans-serif, Normal';font-variant-ligatures:normal;font-variant-caps:normal;font-variant-numeric:normal;font-feature-settings:normal;text-align:start;writing-mode:lr-tb;text-anchor:start;stroke-width:0.26458332">wireless</tspan></text>
    <text
       xml:space="preserve"
       style="font-style:normal;font-weight:normal;font-size:10.58333302px;line-height:1.25;font-family:sans-serif;letter-spacing:0px;word-spacing:0px;fill:#000000;fill-opacity:1;stroke:none;stroke-width:0.26458332"
       x="137.27443"
       y="-0.98350447"
       id="text5613-30"
       transform="rotate(41.857519)"
       inkscape:transform-center-x="-13.030455"
       inkscape:transform-center-y="7.8983241"
       inkscape:export-xdpi="96"
       inkscape:export-ydpi="96"><tspan
         sodipodi:role="line"
         id="tspan5611-9"
         x="137.27443"
         y="-0.98350447"
         style="font-style:normal;font-variant:normal;font-weight:normal;font-stretch:normal;font-size:3.52777767px;font-family:sans-serif;-inkscape-font-specification:'sans-serif, Normal';font-variant-ligatures:normal;font-variant-caps:normal;font-variant-numeric:normal;font-feature-settings:normal;text-align:start;writing-mode:lr-tb;text-anchor:start;stroke-width:0.26458332">wireless</tspan></text>
    <text
       xml:space="preserve"
       style="font-style:normal;font-weight:normal;font-size:10.58333302px;line-height:1.25;font-family:sans-serif;letter-spacing:0px;word-spacing:0px;fill:#000000;fill-opacity:1;stroke:none;stroke-width:0.26458332"
       x="113.89077"
       y="101.83749"
       id="text5613-2"
       transform="rotate(3.19468)"
       inkscape:transform-center-y="-0.6116178"
       inkscape:export-xdpi="96"
       inkscape:export-ydpi="96"><tspan
         sodipodi:role="line"
         id="tspan5611-5"
         x="113.89077"
         y="101.83749"
         style="font-style:normal;font-variant:normal;font-weight:normal;font-stretch:normal;font-size:3.52777767px;font-family:sans-serif;-inkscape-font-specification:'sans-serif, Normal';font-variant-ligatures:normal;font-variant-caps:normal;font-variant-numeric:normal;font-feature-settings:normal;text-align:start;writing-mode:lr-tb;text-anchor:start;stroke-width:0.26458332">wireless</tspan></text>
    <text
       xml:space="preserve"
       style="font-style:normal;font-weight:normal;font-size:10.58333302px;line-height:1.25;font-family:sans-serif;letter-spacing:0px;word-spacing:0px;fill:#000000;fill-opacity:1;stroke:none;stroke-width:0.26458332"
       x="79.193413"
       y="48.028557"
       id="text5613-4"
       transform="rotate(22.831485)"
       inkscape:export-xdpi="96"
       inkscape:export-ydpi="96"><tspan
         sodipodi:role="line"
         id="tspan5611-05"
         x="79.193413"
         y="48.028557"
         style="font-style:normal;font-variant:normal;font-weight:normal;font-stretch:normal;font-size:3.52777767px;font-family:sans-serif;-inkscape-font-specification:'sans-serif, Normal';font-variant-ligatures:normal;font-variant-caps:normal;font-variant-numeric:normal;font-feature-settings:normal;text-align:start;writing-mode:lr-tb;text-anchor:start;stroke-width:0.26458332">wire</tspan></text>
  </g>
  <g
     inkscape:groupmode="layer"
     id="layer2"
     inkscape:label="PC" />
</svg>
